<?xml version="1.0" standalone="no"?><!DOCTYPE svg PUBLIC "-//W3C//DTD SVG 1.1//EN" "http://www.w3.org/Graphics/SVG/1.1/DTD/svg11.dtd"><svg t="1700031818693" class="icon" viewBox="0 0 1024 1024" version="1.1" xmlns="http://www.w3.org/2000/svg" p-id="3035" xmlns:xlink="http://www.w3.org/1999/xlink" width="200" height="200"><path d="M0 512a512 512 0 1 0 1024 0 512 512 0 1 0-1024 0Z" fill="#D8D8D8" p-id="3036"></path><path d="M349.3888 273.066667l-23.9104 165.7344h133.700267l-3.2256 34.304H277.5552q-10.3936 0-15.616-6.775467-5.154133-6.775467-5.154133-17.186133l20.770133-162.7136-10.3936-13.3632h82.2272z m352.785067 0q4.983467 0 9.250133 1.826133 4.266667 1.7408 7.338667 4.949333 3.054933 3.1232 4.096 7.3728 1.058133 4.266667-0.341334 9.557334L698.589867 473.088H506.231467q-4.9664 0-9.335467-1.7408-4.266667-1.826133-7.338667-4.949333-2.9696-3.208533-4.096-7.6288-1.058133-4.437333 0.426667-9.386667L509.815467 273.066667h192.3584z m-130.474667 34.304L554.496 438.784h78.984533l20.4288-131.447467h-82.210133z m-81.442133 301.346133h-68.608l3.242666-23.534933h-82.2272l-17.186133 131.464533h82.210133l3.584-40.465067-20.770133-33.6896h92.603733L469.572267 750.933333H277.213867q-4.983467 0-9.352534-1.7408-4.266667-1.826133-7.338666-4.949333-2.952533-3.208533-4.096-7.6288-1.041067-4.437333 0.443733-9.386667l23.9104-176.3328h216.285867l-6.8096 57.821867z m256.6144-57.821867q4.9664 0 9.250133 1.826134 4.266667 1.7408 7.338667 4.949333 3.037867 3.1232 4.096 7.3728 1.041067 4.266667-0.341334 9.557333L743.2704 750.933333H550.912q-4.9664 0-9.335467-1.7408-4.266667-1.826133-7.338666-4.949333-2.952533-3.208533-4.096-7.6288-1.041067-4.437333 0.443733-9.386667L554.496 550.912h192.375467z m-130.491734 34.304l-17.186133 131.447467h78.984533l20.411734-131.464533h-82.210134z" fill="#F4F4F4" p-id="3037"></path></svg>